<?xml version="1.0" encoding="utf-8"?>
<!-- Generator: Adobe Illustrator 21.0.0, SVG Export Plug-In . SVG Version: 6.00 Build 0)  -->
<svg version="1.1" id="Layer_1" xmlns="http://www.w3.org/2000/svg" xmlns:xlink="http://www.w3.org/1999/xlink" x="0px" y="0px"
	 viewBox="0 0 180 53.3051033" enable-background="new 0 0 180 53.3051033" xml:space="preserve">
<g>
	<g>
		<g>
			<polygon fill="#231F20" points="5.2859135,3.7826488 38.7488747,3.7826488 38.7488747,28.9549503 42.1556931,31.0094242 
				42.2711067,0.4025517 1.760314,0.4025517 1.8304839,6.6385779 5.2859135,8.6779394 			"/>
			<path fill="#231F20" d="M22.017271,49.3302422c-5.2729301-2.5085487-16.7313576-9.4857635-16.7313576-16.6343613V14.1449757
				l-3.4593718-2.0417309L1.774408,32.6958809c0,11.1942978,18.6961899,19.7018471,19.4930878,20.0582275
				c0.2212524,0.0997162,0.4487343,0.1484413,0.6856174,0.1484413c0.2368145,0,0.4689636-0.0498657,0.6890411-0.1484413
				c0.7143154-0.3189774,15.7783432-7.1688614,18.9325981-16.6301231l-2.9758186-1.8169136
				C37.0830841,40.8610382,26.8933411,47.0068092,22.017271,49.3302422z"/>
		</g>
		<g>
			<path fill="#231F20" d="M15.6478453,39.8552132c0,0,0.959115-28.0033321,18.040226-31.5736732
				c0,0-1.1527634,3.9461575-6.1079903,6.484436c0,0,2.5288525-0.3759642,4.3293209-1.5838127
				c0,0-0.1328373,4.163413-6.4650497,6.4758387c0,0,3.8249111-0.0582161,5.2653866-1.0246735
				c0,0,0.3574905,2.9776783-5.845953,6.2161636c-0.3678474,0.1911774-2.8186417,1.5752697-0.630722,1.2573528
				c0,0,3.1861-0.3071804,3.9077892-0.7919312c0,0-1.5290718,4.6170731-8.0072117,6.047081
				c-0.6370087,0.1403961-0.9263515,0.255312-0.9263515,0.255312L15.6478453,39.8552132z"/>
		</g>
	</g>
	<g>
		<path fill="#231F20" d="M73.0760117,44.5812416l-1.0870819-3.2040291h-7.1516953l-0.9154205,3.2040291h-4.7202148
			c1.8880615-5.9788399,3.9763374-11.0708122,6.1505051-15.2760315c0.4863205-0.9726429,0.6293106-1.80229,0.4291-2.3458328
			c1.4304123-0.7150841,3.347023-1.0011921,4.8345337-1.0584126l7.2089157,18.3369503v0.3433266H73.0760117z M68.5561371,31.2790413
			c-0.9440918,2.1169472-1.8308411,4.3768883-2.6032715,6.6368256h4.863205L68.5561371,31.2790413z"/>
		<path fill="#231F20" d="M90.841713,42.0066452c0,2.2027206-2.4888229,2.8607025-5.1206436,2.8607025
			c-4.4339828,0-7.1231461-2.8034782-7.1231461-7.7239075c0-4.1479988,3.0038147-6.7798176,7.3520355-6.7798176
			c2.9751434,0,5.4352951,1.2872982,5.4352951,3.7761211c0,1.5161858-1.0584106,2.1454964-2.374382,2.1454964h-1.1156311V35.71315
			c0-1.6306267-0.9154205-2.2027206-2.0882797-2.2027206c-1.8022842,0-3.0038147,1.4875145-3.0038147,3.6330109
			c0,3.0323677,1.6306305,4.5485497,4.6343231,4.5485497c1.1443024,0,2.374382-0.2003365,3.4042435-0.6579857V42.0066452z"/>
		<path fill="#231F20" d="M97.9654617,36.5141258l3.1466904-0.3146553v-0.0858917
			c-0.1143265-2.2312698-1.7449493-2.7748108-3.6044617-2.7748108c-1.2586288,0-2.4316025,0.3718758-3.5185623,0.8295288v-1.0869637
			c0-2.0025043,3.1181335-2.7177105,5.2349625-2.7177105c2.8893738,0,5.6928558,0.9154186,6.0075073,5.6355114l0.5148697,7.0659256
			c0.1144485,1.6306267-1.5161819,1.6306267-4.147995,1.6306267l-0.1429977-2.1741676
			c-1.1156311,1.4589615-2.6890335,2.345829-4.6628723,2.345829c-2.8321457,0-4.1194458-2.1454964-4.1194458-4.2052193
			C92.6731567,38.4021873,94.1321182,36.8573341,97.9654617,36.5141258z M98.5662231,42.0638695
			c1.573288,0,2.5746002-1.8022919,2.6603699-3.5186882l-2.6318207,0.3146553
			c-0.972641,0.143116-1.5447311,0.7724266-1.5447311,1.5734062C97.0500412,41.3486633,97.5935822,42.0638695,98.5662231,42.0638695
			z"/>
		<path fill="#231F20" d="M114.0433121,30.3636227c1.5447388,0,2.8892593,0.543541,3.8333435,1.659174v-5.864397h4.0335617V42.55019
			c0,2.1454964-0.4863205,2.1454964-4.0335617,2.1454964v-2.6604881c-1.1443024,1.8022881-2.917923,2.8321495-5.0348663,2.8321495
			c-3.5185699,0-5.2350845-2.774929-5.2350845-6.6368256C107.6067047,33.9967499,110.1814194,30.3636227,114.0433121,30.3636227z
			 M114.329422,41.5488777c1.945282,0,3.3469009-1.9452858,3.3469009-4.6628723
			c0-1.4875145-0.6865311-3.1753616-2.6031418-3.1753616c-2.1741714,0-3.2612534,2.2027206-3.2612534,4.3768883
			C111.8119278,39.9183693,112.5271301,41.5488777,114.329422,41.5488777z"/>
		<path fill="#231F20" d="M137.0155487,42.1210899c0,2.0310516-2.9465942,2.7462578-5.4067535,2.7462578
			c-4.2337646,0-7.1803589-2.6032677-7.1803589-7.6952362c0-3.890564,2.7462616-6.8084888,7.0086975-6.8084888
			c4.2052307,0,6.5223846,2.6890392,6.5223846,6.7225971c0,1.4876328-1.230072,1.8308372-2.2884827,1.8308372h-6.8084869
			c0.5149841,1.8880615,1.945282,2.8321533,4.4626465,2.8321533c1.315979,0,2.4888306-0.2288857,3.6903534-0.6579857V42.1210899z
			 M128.6336517,36.4282341h4.4341125c0.4863129,0,0.6579895-0.4004288,0.6579895-0.6865349
			c0-1.544735-0.8868713-2.5745964-2.3458405-2.5745964C129.5490723,33.1671028,128.7480927,34.3971786,128.6336517,36.4282341z"/>
		<path fill="#231F20" d="M157.3268127,44.6956863v-8.1243401c0-1.6878471-0.5719757-2.6032639-1.9166107-2.6032639
			c-1.2872925,0-2.5746002,1.1443024-2.6032715,3.2612495v7.3519096h-4.0336761v-8.0098953
			c0-1.6878471-0.6004028-2.6032639-1.9164886-2.6032639c-1.3445129,0-2.6032715,1.1443024-2.6032715,3.347023v7.2661362h-4.0335541
			V32.7093315c0-2.1740456,0.4863281-2.1740456,4.0335541-2.1740456v2.4316025
			c1.1729736-1.7736187,2.6604919-2.6032658,4.5486755-2.6032658c1.9163666,0,3.2039032,1.0298615,3.7474518,2.6890392
			c1.3730621-1.9738331,2.9463501-2.6890392,4.863205-2.6890392c2.6890411,0,3.9476624,1.7450695,3.9476624,4.5485477V42.55019
			C161.3604889,44.6956863,160.8456268,44.6956863,157.3268127,44.6956863z"/>
		<path fill="#231F20" d="M178.2396851,30.9357147l-5.0920868,13.6740799
			c-0.5435486,3.3756905-2.4028168,4.9776459-5.0918579,4.9776459c-1.4877472,0-3.0039368-0.4863205-3.0039368-2.0597229v-1.3158493
			c0.4864502,0.1429939,1.0870819,0.2574348,1.6306305,0.2574348c1.2588654,0,2.0597229-0.5148697,2.4317169-1.6878471
			c-2.574585-4.6915436-4.6343079-9.497406-6.1791687-14.1317272h4.863205
			c0.7724304,3.1466885,1.945282,6.6653767,3.2325745,9.5832996l2.8605957-9.5832996h4.3483276V30.9357147z"/>
	</g>
	<g>
		<path fill="#231F20" d="M75.324646,19.0695877c0,2.1647682-0.5411911,2.1647682-4.2443542,2.1647682v-6.979022h-7.6343346
			V21.12047h-4.2443581V4.8263612c0-2.1647689,0.5411911-2.1647689,4.2443581-2.1647689v7.8336344h7.6343346V2.7754784h4.2443542
			V19.0695877z"/>
		<path fill="#231F20" d="M85.0360031,21.4054184c-3.6177521,0-6.466301-1.7946396-6.466301-6.0961714V9.2987232
			c0-2.1650023,0.4842453-2.1650023,4.0165787-2.1650023v7.719748c0,1.994174,0.7976685,3.0196142,2.4497223,3.0196142
			c1.680748,0,2.592308-1.0254402,2.592308-3.0196142V7.2478404h4.0165787v8.0614071
			C91.6448898,19.6107788,88.6252747,21.4054184,85.0360031,21.4054184z"/>
		<path fill="#231F20" d="M100.2456207,6.9628916c1.5381622,0,2.8770294,0.5411925,3.8172836,1.6522818v-5.839695h4.0163574
			v16.3225803c0,2.1362972-0.4842529,2.1362972-4.0163574,2.1362972v-2.64925
			c-1.1395569,1.7946377-2.9057236,2.8203125-5.0137863,2.8203125c-3.503624,0-5.2128525-2.7631378-5.2128525-6.6088924
			C93.8362656,10.5806417,96.4001007,6.9628916,100.2456207,6.9628916z M100.530571,18.1008568
			c1.9369965,0,3.3328018-1.9369984,3.3328018-4.6431923c0-1.4812183-0.683548-3.161972-2.592308-3.161972
			c-2.1647644,0-3.2473831,2.1934738-3.2473831,4.3584766C98.0236816,16.4772797,98.7359314,18.1008568,100.530571,18.1008568z"/>
		<path fill="#231F20" d="M117.5917816,21.4054184c-3.6175156,0-6.466301-1.7946396-6.466301-6.0961714V9.2987232
			c0-2.1650023,0.4842453-2.1650023,4.0165787-2.1650023v7.719748c0,1.994174,0.7976685,3.0196142,2.4497223,3.0196142
			c1.680748,0,2.592308-1.0254402,2.592308-3.0196142V7.2478404h4.0165787v8.0614071
			C124.2006683,19.6107788,121.1810608,21.4054184,117.5917816,21.4054184z"/>
	</g>
</g>
</svg>
